<svg width="64" height="64" viewBox="0 0 64 64" fill="none" xmlns="http://www.w3.org/2000/svg">
<rect width="64" height="64" fill="#F9F5FC"/>
<path d="M14.2416 44.276C9.82559 44.276 7.01959 41.746 7.01959 37.744V33.788C7.01959 29.694 9.82559 27.072 14.2416 27.072H22.1536V28.452H24.4076V26.566C24.4076 23.622 22.6596 21.966 19.4396 21.966L9.50359 23.438V19.114L19.3476 17.55C25.7416 17.55 29.3296 20.908 29.3296 26.658V44H24.4076V29.326H22.1536V30.706H18.3816V31.074C20.2676 31.396 21.3716 32.776 21.3716 34.8V37.79C21.3716 41.792 18.5656 44.276 14.2416 44.276ZM14.2416 40.412C16.1736 40.412 17.3236 39.308 17.3236 37.468V34.156C17.3236 32.27 16.1736 31.074 14.2416 31.074C12.3096 31.074 11.0676 32.27 11.0676 34.156V37.468C11.0676 39.308 12.3096 40.412 14.2416 40.412ZM41.838 44.276C37.422 44.276 34.616 41.746 34.616 37.744V33.788C34.616 29.694 37.422 27.072 41.838 27.072H49.75V28.452H52.004V26.566C52.004 23.622 50.256 21.966 47.036 21.966L37.1 23.438V19.114L46.944 17.55C53.338 17.55 56.926 20.908 56.926 26.658V44H52.004V29.326H49.75V30.706H45.978V31.074C47.864 31.396 48.968 32.776 48.968 34.8V37.79C48.968 41.792 46.162 44.276 41.838 44.276ZM41.838 40.412C43.77 40.412 44.92 39.308 44.92 37.468V34.156C44.92 32.27 43.77 31.074 41.838 31.074C39.906 31.074 38.664 32.27 38.664 34.156V37.468C38.664 39.308 39.906 40.412 41.838 40.412Z" fill="black"/>
</svg>
